<?xml version="1.0" encoding="UTF-8"?>
<svg width="128" height="128" viewBox="0 0 128 128" xmlns="http://www.w3.org/2000/svg">
    <path fill="#00ACD7" d="M108.076 67.469c-.51-.72-1.333-1.147-2.167-1.147-.51 0-1.031.146-1.49.438-3.719 2.406-7.604 4.292-11.656 5.635-1.125.375-2.271.719-3.427 1.021-1.917.5-3.854.906-5.812 1.219-2.042.333-4.094.583-6.167.75-2.135.167-4.281.25-6.427.25-2.146 0-4.292-.083-6.427-.25-2.073-.167-4.125-.417-6.167-.75-1.958-.313-3.896-.719-5.812-1.219-1.156-.302-2.302-.646-3.427-1.021-4.052-1.344-7.938-3.229-11.656-5.635-.458-.292-.979-.438-1.49-.438-.833 0-1.656.427-2.167 1.147-1.052 1.458-.729 3.49.729 4.542 4.219 3.021 8.75 5.417 13.542 7.125 1.188.427 2.396.812 3.615 1.156 2.021.573 4.073 1.052 6.146 1.438 2.156.396 4.333.688 6.521.875 2.25.188 4.521.281 6.781.281 2.26 0 4.531-.094 6.781-.281 2.188-.188 4.365-.479 6.521-.875 2.073-.385 4.125-.865 6.146-1.438 1.219-.344 2.427-.729 3.615-1.156 4.792-1.708 9.323-4.104 13.542-7.125.729-.521 1.156-1.365 1.156-2.24 0-.813-.323-1.604-.906-2.302z"/>
    <path fill="#00ACD7" d="M95.188 58.938c-1.104 0-2 .896-2 2v3.469c0 1.104.896 2 2 2s2-.896 2-2v-3.469c0-1.104-.896-2-2-2zM32.812 58.938c-1.104 0-2 .896-2 2v3.469c0 1.104.896 2 2 2s2-.896 2-2v-3.469c0-1.104-.896-2-2-2z"/>
    <path fill="#00ACD7" d="M121.75 47.125c-1.469-4.375-3.562-8.448-6.24-12.177-2.667-3.708-5.906-6.979-9.615-9.646-3.729-2.677-7.802-4.771-12.177-6.24-4.521-1.521-9.292-2.292-14.219-2.292s-9.698.771-14.219 2.292c-4.375 1.469-8.448 3.562-12.177 6.24-3.708 2.667-6.979 5.938-9.646 9.646-2.677 3.729-4.771 7.802-6.24 12.177-1.521 4.521-2.292 9.292-2.292 14.219s.771 9.698 2.292 14.219c1.469 4.375 3.562 8.448 6.24 12.177 2.667 3.708 5.938 6.979 9.646 9.646 3.729 2.677 7.802 4.771 12.177 6.24 4.521 1.521 9.292 2.292 14.219 2.292s9.698-.771 14.219-2.292c4.375-1.469 8.448-3.562 12.177-6.24 3.708-2.667 6.948-5.938 9.615-9.646 2.677-3.729 4.771-7.802 6.24-12.177 1.521-4.521 2.292-9.292 2.292-14.219s-.771-9.698-2.292-14.219zm-42.25 48.104c-18.688 0-33.875-15.188-33.875-33.875s15.188-33.875 33.875-33.875 33.875 15.188 33.875 33.875-15.187 33.875-33.875 33.875z"/>
</svg> 