<?xml version="1.0" encoding="UTF-8"?>
<svg width="128" height="128" viewBox="0 0 128 128" xmlns="http://www.w3.org/2000/svg">
    <path fill="#000000" d="M62.271 10.88c-.189.11-.982 1.248-1.763 2.529-1.596 2.628-1.647 2.727-1.408 2.727.123 0 1.166-.71 2.317-1.58 1.152-.87 2.152-1.58 2.223-1.58.071 0 .13-.163.13-.362 0-.2-.059-.362-.13-.362-.072 0-.602.308-1.179.687-.577.379-1.081.687-1.121.687-.04 0 .467-.78 1.127-1.731.66-.952 1.2-1.82 1.2-1.93 0-.219-.205-.219-.396-.085zm5.413 3.005c-.329.366-.599.732-.599.814 0 .081.27-.141.599-.494.329-.354.599-.72.599-.814 0-.094-.27.128-.599.494zm-1.314 1.467c-.329.366-.599.732-.599.814 0 .081.27-.141.599-.494.329-.354.599-.72.599-.814 0-.094-.27.128-.599.494zm-10.159 2.544c-.599.192-1.09.384-1.09.427 0 .094 2.27-.622 2.627-.826.451-.256-.133-.122-1.537.399zm14.969.005c.554.238 1.03.433 1.057.433.028 0-.402-.195-.955-.433-.554-.238-1.03-.433-1.057-.433-.028 0 .402.195.955.433zm-19.002 2.427c0 .082.27.445.599.811.329.366.599.591.599.5 0-.091-.27-.455-.599-.821-.329-.366-.599-.591-.599-.49zm22.485.339c-.329.354-.599.72-.599.814 0 .094.27-.128.599-.494.329-.366.599-.732.599-.814 0-.081-.27.141-.599.494zm-18.773 1.493c0 .094.27.476.599.851.329.375.599.583.599.463s-.27-.476-.599-.851c-.329-.375-.599-.583-.599-.463zm15.061.339c-.329.354-.599.72-.599.814 0 .094.27-.128.599-.494.329-.366.599-.732.599-.814 0-.081-.27.141-.599.494zm-11.349 1.493c0 .094.27.476.599.851.329.375.599.583.599.463s-.27-.476-.599-.851c-.329-.375-.599-.583-.599-.463zm7.637.339c-.329.354-.599.72-.599.814 0 .094.27-.128.599-.494.329-.366.599-.732.599-.814 0-.081-.27.141-.599.494zm-4.099 1.359c-.207.247-.277.449-.156.449.121 0 .368-.202.549-.449.207-.247.277-.449.156-.449-.121 0-.368.202-.549.449zm-8.711 3.99c0 .094.27.476.599.851.329.375.599.583.599.463s-.27-.476-.599-.851c-.329-.375-.599-.583-.599-.463zm13.735 1.833c-.329.354-.599.72-.599.814 0 .094.27-.128.599-.494.329-.366.599-.732.599-.814 0-.081-.27.141-.599.494zm-11.349 1.493c0 .094.27.476.599.851.329.375.599.583.599.463s-.27-.476-.599-.851c-.329-.375-.599-.583-.599-.463zm7.637.339c-.329.354-.599.72-.599.814 0 .094.27-.128.599-.494.329-.366.599-.732.599-.814 0-.081-.27.141-.599.494zm-4.099 1.359c-.207.247-.277.449-.156.449.121 0 .368-.202.549-.449.207-.247.277-.449.156-.449-.121 0-.368.202-.549.449zm-8.711 3.99c0 .094.27.476.599.851.329.375.599.583.599.463s-.27-.476-.599-.851c-.329-.375-.599-.583-.599-.463zm13.735 1.833c-.329.354-.599.72-.599.814 0 .094.27-.128.599-.494.329-.366.599-.732.599-.814 0-.081-.27.141-.599.494zm-11.349 1.493c0 .094.27.476.599.851.329.375.599.583.599.463s-.27-.476-.599-.851c-.329-.375-.599-.583-.599-.463zm7.637.339c-.329.354-.599.72-.599.814 0 .094.27-.128.599-.494.329-.366.599-.732.599-.814 0-.081-.27.141-.599.494zm-4.099 1.359c-.207.247-.277.449-.156.449.121 0 .368-.202.549-.449.207-.247.277-.449.156-.449-.121 0-.368.202-.549.449z"/>
    <path fill="#000000" d="M63.391 1.988c-4.222.02-8.252.379-11.8 1.007-10.45 1.846-12.346 5.71-12.346 12.837v9.411h24.693v3.137h-33.961c-7.176 0-13.46 4.313-15.426 12.521-2.268 9.405-2.368 15.275 0 25.096 1.755 7.311 5.947 12.519 13.124 12.519h8.491v-11.282c0-8.151 7.051-15.34 15.426-15.34h24.665c6.866 0 12.346-5.654 12.346-12.548v-23.513c0-6.693-5.646-11.72-12.346-12.837-4.244-.706-8.645-1.027-12.866-1.008zm-13.354 7.569c2.55 0 4.634 2.117 4.634 4.721 0 2.593-2.083 4.69-4.634 4.69-2.56 0-4.633-2.097-4.633-4.69-.001-2.604 2.073-4.721 4.633-4.721z"/>
    <path fill="#000000" d="M91.682 28.38v10.966c0 8.5-7.208 15.655-15.426 15.655h-24.665c-6.756 0-12.346 5.783-12.346 12.549v23.515c0 6.691 5.818 10.628 12.346 12.547 7.816 2.297 15.312 2.713 24.665 0 6.216-1.801 12.346-5.423 12.346-12.547v-9.412h-24.664v-3.138h37.012c7.176 0 9.852-5.005 12.348-12.519 2.578-7.735 2.467-15.174 0-25.096-1.774-7.145-5.161-12.521-12.348-12.521h-9.268zm-13.873 59.547c2.561 0 4.634 2.097 4.634 4.692 0 2.602-2.074 4.719-4.634 4.719-2.55 0-4.633-2.117-4.633-4.719 0-2.595 2.083-4.692 4.633-4.692z"/>
</svg> 